<?xml version="1.0" encoding="utf-8"?>
<!-- Generator: Adobe Illustrator 25.4.1, SVG Export Plug-In . SVG Version: 6.00 Build 0)  -->
<svg version="1.1" id="Layer_1" xmlns="http://www.w3.org/2000/svg" xmlns:xlink="http://www.w3.org/1999/xlink" x="0px" y="0px"
	 viewBox="0 0 236.9 354" style="enable-background:new 0 0 236.9 354;" xml:space="preserve">
<style type="text/css">
	.st0{fill:#733148;}
	.st1{fill:#FFECEE;}
	.st2{fill:#2A0714;}
	.st3{fill:none;stroke:#0F0E0E;stroke-width:7;stroke-linecap:round;stroke-miterlimit:10;}
	.st4{fill:none;stroke:#004574;stroke-width:7;stroke-linecap:round;stroke-linejoin:round;stroke-miterlimit:10;}
	.st5{fill:#004574;}
	.st6{fill:none;stroke:#EE4D3F;stroke-width:5;stroke-linecap:round;stroke-miterlimit:10;}
	.st7{fill:none;stroke:#B81C46;stroke-width:6;stroke-linecap:round;stroke-miterlimit:10;}
	.st8{fill:none;stroke:#309847;stroke-width:7;stroke-linecap:round;stroke-miterlimit:10;}
	.st9{fill:none;stroke:#00D109;stroke-width:7;stroke-linecap:round;stroke-miterlimit:10;}
	.st10{fill:none;stroke:#FA4F22;stroke-width:7;stroke-linecap:round;stroke-miterlimit:10;}
	.st11{fill:#FFBB00;}
	.st12{fill:none;stroke:#009076;stroke-width:7;stroke-linecap:round;stroke-miterlimit:10;}
	.st13{fill:#007FB5;}
</style>
<g>
	
		<ellipse transform="matrix(0.3682 -0.9297 0.9297 0.3682 29.4182 158.2361)" class="st0" cx="131.1" cy="57.5" rx="53.7" ry="72.8"/>
	
		<ellipse transform="matrix(0.9976 -6.995568e-02 6.995568e-02 0.9976 -7.929 8.3278)" class="st1" cx="114.9" cy="117.4" rx="76.9" ry="75.8"/>
	<ellipse class="st1" cx="198" cy="96.3" rx="30.8" ry="33.9"/>
	<ellipse class="st1" cx="33.1" cy="139.3" rx="30.8" ry="33.9"/>
	<path class="st2" d="M28,108.2c0,0-51.2-63.4-5.4-97.3s126.8,18.6,158,59.9L148.4,60c-13.8-4.6-28.7-4.8-42.5-0.3
		c-26.7,8.6-51.8,29.1-68.1,50.5L28,108.2z"/>
	<path class="st3" d="M53.1,89.3c0,0,29.8,12.2,30.5-20.1c0-1.9,2.1-3.1,3.8-2.1c6.1,3.5,17.9,7.4,22.9-9.5c0.6-2.2,3.3-3,5-1.5
		c4.8,4,14.1,7.4,26-8"/>
	<polyline class="st4" points="87,115.2 100.7,115.6 93.7,128.9 	"/>
	
		<ellipse transform="matrix(0.9869 -0.1613 0.1613 0.9869 -16.3279 21.6765)" class="st5" cx="125.3" cy="111.4" rx="6.5" ry="9.7"/>
	<path class="st6" d="M119.9,139.6c-0.8,0.2-1.7,0.3-2.6,0.3c-6.1,0-11-5-11-11.2s4.9-11.2,11-11.2c3.8,0,7.2,2,9.1,5"/>
	<path class="st7" d="M111,153.2c1.7,1.3,4.1,2.2,6.9,2.6c12.9,1.9,24.9-7.6,26.1-20.5c0.4-4.2-0.5-8.2-2.2-12.8"/>
	<line class="st8" x1="25.9" y1="142.1" x2="39.6" y2="139.1"/>
	<line class="st8" x1="194.5" y1="95.6" x2="208.2" y2="92.6"/>
	<polygon class="st1" points="85.3,185.8 92.9,220.4 162.8,214.4 158,169.2 	"/>
	<line class="st9" x1="159.6" y1="181.8" x2="162.3" y2="207.9"/>
	<line class="st10" x1="86.9" y1="187" x2="89.7" y2="213.1"/>
	<path class="st11" d="M14.9,350.2c0,0-25.2-146,106.1-150.2c0,0,86.9-6.4,100.8,84c8.7,56.5,7.9,64.6,7.9,64.6L14.9,350.2z"/>
	<path class="st12" d="M116.6,265.1c-2.4-3.4-7.3-4.6-11.2-3.2c-3.9,1.4-6.8,5.1-7.8,9.1c-1,4-0.4,8.4,1.2,12.2
		c1.5,3.7,4,7.1,7.5,9.1c3.5,2,8,2.4,11.5,0.5c3.5-2,5.6-6.5,4.2-10.2"/>
	<path class="st12" d="M142,254.8c-2.7,0.6-5.5,1.2-8,2.4s-4.8,3.2-5.8,5.8c-1.5,3.6-0.3,7.7,0.9,11.5c1.2,3.8,2.7,8.1,6.3,9.9
		c2.4,1.2,5.3,1.1,7.9,0.3c2.6-0.8,4.9-2.3,7.1-3.8"/>
	<path class="st12" d="M150.6,265.5c-5.6,2.8-11.2,5.5-16.9,8.3"/>
	<path class="st10" d="M19.5,350.5c0,0-14.3-55.3,10.9-102.2c17.8-33.2,49.2-40.4,58.6-43.4"/>
	<path class="st13" d="M170.5,264.4c0,0-2.1-7.9,7.9-8.9c10-1.1,35.7-2.1,35.7-2.1s11.2-2.3,14.4,8.9c3.2,11.2,11.6,59.5,4.9,80.2
		c0,0-1.4,7.4-13,7.7c-11.6,0.4-30.8-0.4-30.8-0.4s-10.5-0.7-12.3-9.8C175.6,330.9,170.4,271.4,170.5,264.4z"/>
	<path class="st1" d="M171.9,259.7c0,0-13.7-17.2-7-29.1c6.7-11.9,16.5-1.7,16.5-1.7s4.9-42,33-39c28.1,3,21.9,46.9,21.9,46.9
		s-5.4,18.1-11.6,23.1c-6.2,5-50.3,3.7-50.3,3.7L171.9,259.7z"/>
	<path class="st9" d="M42.6,108.9c0,0-16.6-12.3-32.2,9.1c-15.1,20.7-2.6,43.6,11.2,51.5c9,5.1,26.6,3.2,31.9-9.1
		c0,0,33.6,37.4,73.2,32.6c34.6-4.2,57.4-24.9,62.7-64.4c0,0,43.3,0.9,36.8-36.4c-5.5-30.9-35-35-47.6-19.6"/>
</g>
</svg>
