<?xml version="1.0" encoding="utf-8"?>
<!-- Generator: Adobe Illustrator 25.4.1, SVG Export Plug-In . SVG Version: 6.00 Build 0)  -->
<svg version="1.1" id="Layer_1" xmlns="http://www.w3.org/2000/svg" xmlns:xlink="http://www.w3.org/1999/xlink" x="0px" y="0px"
	 viewBox="0 0 279.2 359" style="enable-background:new 0 0 279.2 359;" xml:space="preserve">
<style type="text/css">
	.st0{fill:#00BB00;}
	.st1{fill:none;stroke:#FFCB46;stroke-width:7;stroke-miterlimit:10;}
	.st2{fill:#FFECEE;}
	.st3{fill:#000001;}
	.st4{display:none;fill:#000001;}
	.st5{fill:#F96274;}
	.st6{fill:none;stroke:#AE2044;stroke-width:6;stroke-linecap:round;stroke-miterlimit:10;}
	.st7{fill:#309847;}
	.st8{fill:#FFECEE;stroke:#000000;stroke-width:6;stroke-miterlimit:10;}
	.st9{fill:#231784;}
	.st10{fill:none;stroke:#004BD8;stroke-width:6;stroke-linecap:round;stroke-miterlimit:10;}
	.st11{fill:#FA4F22;}
	.st12{fill:none;stroke:#141414;stroke-width:7;stroke-linecap:round;stroke-miterlimit:10;}
	.st13{fill:#FFCB46;}
	.st14{fill:none;stroke:#004BD8;stroke-width:7;stroke-linecap:round;stroke-miterlimit:10;}
	.st15{fill:none;stroke:#F9F2F1;stroke-width:7;stroke-linecap:round;stroke-miterlimit:10;}
	.st16{fill:none;stroke:#000001;stroke-width:7;stroke-linecap:round;stroke-linejoin:round;stroke-miterlimit:10;}
	.st17{fill:none;stroke:#776208;stroke-width:7;stroke-linecap:round;stroke-miterlimit:10;}
</style>
<g>
	<path class="st0" d="M205.2,80.9c0,0,81.5,33.8,69.3,57.5c-12.2,23.6-93.7,11-93.7,11L205.2,80.9z"/>
	<path class="st1" d="M200.9,79.3c0,0,85.8,35.4,73.6,59c-12.2,23.6-95.9,10-95.9,10L200.9,79.3z"/>
	<path class="st2" d="M168,62.6c35.6,43.9,14.6,115.4-1.2,132.7c-31.4,34.6-89.6,16.4-125.2-27.5S21.1,58.6,37.9,36.3
		C66-0.9,132.4,18.7,168,62.6z"/>
	<ellipse transform="matrix(0.9301 -0.3673 0.3673 0.9301 -44.2724 31.173)" class="st3" cx="59.8" cy="131.9" rx="7.7" ry="10.5"/>
	<ellipse transform="matrix(0.9301 -0.3673 0.3673 0.9301 -39.7382 33.0588)" class="st4" cx="67" cy="120.9" rx="7.7" ry="10.5"/>
	<circle class="st5" cx="72.3" cy="141" r="9.6"/>
	<path class="st6" d="M99,128.6c0,0,5.1,33.5-21.3,31.2"/>
	<path class="st7" d="M18.8,111c0,0,38-36.8,133.3-29.3c0,0,53.9,13,47.6-7.5S165.5-4.1,88.3,0.2S3.2,74.8,3.6,88.2
		S8.6,114.2,18.8,111z"/>
	<path class="st8" d="M22.8,73.9l10.2-16.3c0,0,7.6-10.2,22.6-5.5c7.1,2.2,9.1,3.3,11.4,4.3c1.6,0.7,4.2,1.5,5,3.1
		c0.9,1.8,0,3.8-4.1,5.6c-8.1,3.7-43.6,13.9-43.6,13.9S19.7,80.5,22.8,73.9z"/>
	<path class="st9" d="M30.3,68.7l-9.8-8.9c0,0-3.7-5.8,0-9.4s12.1,0.5,12.1,0.5s5.8,3.1,6.8-2.1s2.6-15.5,9.4-15.2
		c4.7,0.2,7.1,11,7.1,11l5.9,19.9c-3.8,1.5-9,3.2-14.7,4.9c-4.9,1.6-9.5,3.1-12.5,3.7L30.3,68.7z"/>
	<ellipse class="st2" cx="185.1" cy="89.6" rx="28.3" ry="31.5"/>
	<line class="st10" x1="177.6" y1="91.9" x2="190.4" y2="82.8"/>
	<path class="st9" d="M131.3,80.8l27.3,34.2c1.5,1.9,3.2,4.2,5.6,4.6c3,0.6,6.4-1.2,3.9-9.3c-4.2-13.9-10.8-28-10.8-28
		C148.8,80.8,140.2,80.4,131.3,80.8z"/>
	<path class="st2" d="M33.6,251.8c0,0,0-9.4,5.2-16.8s12.1-15.2,2.6-12.1s-35.7,11-40.4-4.7s6.8-34.1,25.2-37.8
		c18.4-3.7,42.5-5.8,57.2,15.7s-10,55.1-10,55.1L33.6,251.8z"/>
	<path class="st11" d="M74.8,355.5H31.2c-5.3,0-9.7-4.3-9.7-9.7v-90.1c0-5.3,4.3-9.7,9.7-9.7h43.6c5.3,0,9.7,4.3,9.7,9.7v90.1
		C84.5,351.2,80.2,355.5,74.8,355.5z"/>
	<path class="st12" d="M24.7,136.5c0,0,16.8,59,81.3,66.1"/>
	<path class="st13" d="M234,353.2c2.4-16.5,1.3-63.7,1.3-83c0-70.1-37.5-127-83.8-127s-83.8,56.9-83.8,127c0,20.4,2.5,68.3,5.4,85.3
		L234,353.2z"/>
	<path class="st12" d="M157.3,82.3c0,0,8.6-29.3,32.6-23.4s31.9,41.6,0,62.1c0,0-0.6,14.4-6.2,29.4"/>
	<path class="st14" d="M232.3,324.4c2.4-16.5,3-34.9,3-54.2c0-70.1-37.5-127-83.8-127s-83.8,56.9-83.8,127c0,20.4,2.5,68.3,5.4,85.3
		"/>
	<path class="st15" d="M128,45.9c0.2,7.3,0.4,14.7,0.5,22"/>
	<path class="st15" d="M146.5,45.5c-0.6,7.3-1.2,14.7-1.8,22"/>
	<path class="st15" d="M133.7,56.8c3.4,0,6.8,0,10.2-0.1"/>
	<polyline class="st16" points="82.9,114.7 74.9,125.2 89.2,127.9 	"/>
	<path class="st17" d="M138.5,234.2c0,0,14.1,71.3-1.7,116.9"/>
</g>
</svg>
