<?xml version="1.0" encoding="utf-8"?>
<!-- Generator: Adobe Illustrator 25.4.1, SVG Export Plug-In . SVG Version: 6.00 Build 0)  -->
<svg version="1.1" id="Layer_1" xmlns="http://www.w3.org/2000/svg" xmlns:xlink="http://www.w3.org/1999/xlink" x="0px" y="0px"
	 viewBox="0 0 261.1 372.8" style="enable-background:new 0 0 261.1 372.8;" xml:space="preserve">
<style type="text/css">
	.st0{fill:#FCEFEE;}
	.st1{fill:#007FB5;}
	.st2{fill:none;stroke:#231784;stroke-width:6;stroke-linecap:round;stroke-miterlimit:10;}
	.st3{fill:#231784;}
	.st4{fill:#E6D400;}
	.st5{fill:#010101;}
	.st6{fill:#F96274;}
	.st7{fill:#AE1F43;}
	.st8{fill:#FF7600;}
	.st9{fill:none;stroke:#A85200;stroke-width:7;stroke-linecap:round;stroke-miterlimit:10;}
	.st10{fill:none;stroke:#FFF5E3;stroke-width:7;stroke-linecap:round;stroke-miterlimit:10;}
	.st11{fill:none;stroke:#FF7600;stroke-width:7;stroke-linecap:round;stroke-miterlimit:10;}
	.st12{fill:none;stroke:#F96274;stroke-width:7;stroke-linecap:round;stroke-miterlimit:10;}
	.st13{fill:none;stroke:#1E1E1E;stroke-width:7;stroke-linecap:round;stroke-miterlimit:10;}
	.st14{fill:none;stroke:#00D109;stroke-width:6;stroke-linecap:round;stroke-miterlimit:10;}
</style>
<g>
	<polygon class="st0" points="90,184.9 93.3,247 165,253.9 169.1,179.1 	"/>
	<path class="st0" d="M203.9,125.2c-4.2,44.3-41.3,77-83,73.1S44.2,141.6,48.4,97.3s46-63.4,87.6-59.5S208.1,80.9,203.9,125.2z"/>
	<path class="st0" d="M69.1,118c7.6,19.7,10.2,45.2-18.1,48c-18.8,1.8-38-3.7-45.7-23.4S5.1,99.2,23.6,95.5
		C41.5,92,61.5,98.3,69.1,118z"/>
	<path class="st0" d="M178.3,121.1c-7.6,19.7-9.4,30.6,8.2,37.4c17.6,6.8,44.3,3.2,52.9-16.1c6-13.4,7.4-26.8-14.7-36.9
		C207.5,97.8,185.9,101.4,178.3,121.1z"/>
	<path class="st1" d="M44.4,98.9c-5.1,3.4-7.5-11.2-7.6-16C36.1,48.5,72.7,5.5,116.7,0.5c52.4-5.9,97.4,44.1,92.8,53.7
		c-3.9,8.2-38.8-6.5-86.5-4.5C43.5,53.1,51.8,94,44.4,98.9z"/>
	<path class="st2" d="M45.3,96.4c0,0,1.8,23.7,11.6,29.9"/>
	<path class="st2" d="M200.6,120.4c0,0,8.7-22,5-33"/>
	<path class="st3" d="M88.6,73.2c0,0,11.6,19.9,20.6,8.3c0,0,13.4,4.7,15.9-2.5c0,0,16.8,8.9,24.4-9.4v-8.9L88.6,73.2z"/>
	<path class="st4" d="M42.4,99.5c0,0,48.9-33.5,92.7-30.4c43.8,3.1,64.8,15.6,74.2,39.8c0,0,28.8-21,2.2-60.8
		C187.4,12,98.9,22.2,69.4,49.9C39,78.5,42.4,99.5,42.4,99.5z"/>
	
		<ellipse transform="matrix(0.1253 -0.9921 0.9921 0.1253 -14.7582 210.0368)" class="st5" cx="111.7" cy="113.4" rx="11" ry="8.6"/>
	<ellipse transform="matrix(0.1253 -0.9921 0.9921 0.1253 6.0452 234.0951)" class="st5" cx="135.8" cy="113.6" rx="11" ry="8.6"/>
	<circle class="st6" cx="121.5" cy="127.2" r="10.9"/>
	<ellipse transform="matrix(0.1076 -0.9942 0.9942 0.1076 -61.6497 240.2921)" class="st7" cx="103" cy="154.5" rx="9" ry="7"/>
	<path class="st8" d="M18.9,365c0,0-42.4-93.8,29-119.3c0,0,34-18.3,82.2-3.1c0,0-4,0.9,29.9-2.7s80,0,91.2,37.1s0.4,69.3-8,85.8
		L18.9,365z"/>
	<path class="st9" d="M187.8,302.9c0,0,4.9,35.3-0.9,55"/>
	<path class="st10" d="M32.3,280.1c8.5,7.1,14.3,11.5,21.3,21.4c3.3,4.6,2.6,12-1.4,16c-2.1,2.1-5,3.1-8,3.3
		c-2.9,0.2-5.8-0.3-8.7-0.8"/>
	<path class="st10" d="M43.9,267.6c12.5,8,21.5,21.2,24.7,35.7"/>
	<path class="st10" d="M64,257.3c10.7,9.6,18.5,22.3,22.5,36.1"/>
	<path class="st10" d="M65,281c2.7-2.1,5.4-4.2,8-6.3"/>
	<path class="st11" d="M19.4,133.1c0,0,12.4-0.2,17.8-2.8"/>
	<path class="st11" d="M213.7,133.1c-0.6,0,5.1,0,13,0"/>
	<path class="st12" d="M21.6,99.1c0,0-19.1,4.1-16.1,34c4.1,40.8,50,29.7,58.9,29.5c0,0,19.7,38.9,64,36.2s60.3-25.9,63.9-37.5"/>
	<line class="st12" x1="95.3" y1="236.3" x2="90.4" y2="190.5"/>
	<path class="st13" d="M21.9,369.3c0,0-36.9-50.9-6.4-98.9s99.9-28.2,114.6-27.9c12.6,0.2,53.3-12.6,90.1,2.8s49.8,70.6,22.9,117.4"
		/>
	<path class="st14" d="M44.1,96.9c0,0,0-51.6,84.8-70.2c0,0,39.8-7.1,67,8s36.2,53.2,13.4,74.2"/>
</g>
</svg>
