<?xml version="1.0" encoding="utf-8"?>
<!-- Generator: Adobe Illustrator 25.4.1, SVG Export Plug-In . SVG Version: 6.00 Build 0)  -->
<svg version="1.1" id="Layer_1" xmlns="http://www.w3.org/2000/svg" xmlns:xlink="http://www.w3.org/1999/xlink" x="0px" y="0px"
	 viewBox="0 0 247.9 350.3" style="enable-background:new 0 0 247.9 350.3;" xml:space="preserve">
<style type="text/css">
	.st0{fill:#FFCB46;}
	.st1{fill:#FFFFFF;}
	.st2{fill:none;stroke:#FF7600;stroke-width:7;stroke-linecap:round;stroke-miterlimit:10;}
	.st3{fill:#FA4F22;}
	.st4{fill:none;stroke:#000000;stroke-width:7;stroke-linecap:round;stroke-miterlimit:10;}
	.st5{fill:none;stroke:#000000;stroke-width:7;stroke-linecap:round;stroke-linejoin:round;stroke-miterlimit:10;}
	.st6{fill:#FFE1B8;}
	.st7{fill:#00D109;}
	.st8{fill:none;stroke:#EFD89C;stroke-width:7;stroke-linecap:round;stroke-miterlimit:10;}
	.st9{fill:none;stroke:#00D109;stroke-width:7;stroke-linecap:round;stroke-miterlimit:10;}
	.st10{fill:#050404;}
	.st11{fill:none;stroke:#F86D00;stroke-width:5;stroke-linecap:round;stroke-miterlimit:10;}
	.st12{fill:none;stroke:#EF1E00;stroke-width:7;stroke-linecap:round;stroke-miterlimit:10;}
	.st13{fill:none;stroke:#FFF5E3;stroke-width:7;stroke-linecap:round;stroke-miterlimit:10;}
	.st14{fill:none;stroke:#FFFFFF;stroke-width:7;stroke-linecap:round;stroke-linejoin:round;stroke-miterlimit:10;}
</style>
<g>
	<path class="st0" d="M139.5,9.7c0,0,31.9-15.1,45.8-3.2s45.5,40.1,44.6,117.8c-0.9,77.7-18.8,96.5-50.1,96.9
		c-31.3,0.3-135.1-25.5-155.1-41s-30.1-29.1-21.9-53.4S29,48.9,62.7,16.4s67.5-6.8,67.5-6.8S133.9,12.2,139.5,9.7z"/>
	
		<ellipse transform="matrix(0.9939 -0.1106 0.1106 0.9939 -11.8977 16.9177)" class="st1" cx="146.6" cy="115.7" rx="65.6" ry="79.1"/>
	
		<ellipse transform="matrix(0.9284 -0.3716 0.3716 0.9284 -46.0685 38.6133)" class="st1" cx="77.2" cy="138.8" rx="27.7" ry="28.9"/>
	<path class="st0" d="M70.5,115.7c0,0,30.4,0.2,33.2-47.8c1.2,3.6,3.1,6.6,5.6,8.9c7.3,7.1,19.3,5.6,25.3-2.7
		c3.9-5.5,6.1-13.2,5.6-24.4c4.7,9.5,12.8,13,24.7,10.1c12.7-6.4,19.3-18.4,18.2-37.2l-49.4-2L85,26.2L62.8,67.1l7.3,24.3
		L70.5,115.7z"/>
	<path class="st2" d="M71.1,113.1c0,0,31.8-6.9,28.7-42.4c-0.1-1.1,1.3-1.7,2-0.9c2.4,2.7,5.8,5.5,7.4,7c7.3,7.1,19.3,5.6,25.3-2.7
		c2.9-4,4.6-13.5,5.2-19.5c0.2-1.9,2.5-2.8,4-1.6c6.2,5,14.1,8.2,23.9,5.9c15-3.4,16.4-17.4,15.4-36.2"/>
	<path class="st1" d="M95.6,157l-18.6,50.6l47.8,23.1c0,0,14.2-26.7,30.8-48.2L95.6,157z"/>
	<path class="st3" d="M17.4,317.3c0,0-25.9-54.2-4.9-109.3c18.2-47.8,70.4-7.7,70.4-7.7l97.2,45.3c0,0,67.2,28.3,46.6,71.7
		c-13.4,28.2-16.1,33-16.3,33c-1-0.1-1.5-1.5-2.5-1.5l-178.7-2.4L17.4,317.3z"/>
	<path class="st4" d="M196.6,67.7c0,0,27.5,43.2,6.2,99.1"/>
	<path class="st5" d="M165.8,194c0,0-9.8,2.8-19.3,0.4l-17.3,28.3c0,0-40.5-15.7-48.7-25.2"/>
	<path class="st6" d="M151.8,216.5c0,0-7.3-18.2,13-28.7c20.2-10.5,40.5-20.2,49-55.9c8.5-35.6,23.5,3.6,23.5,3.6s15,53.4-34.4,76.1
		l-15.4,9.3L151.8,216.5z"/>
	<path class="st7" d="M148.2,210.8h58.7c0,0,53.8,61.9,30,104.4s-70.4-36.8-70.4-36.8S143.7,242,148.2,210.8z"/>
	<path class="st8" d="M149.4,214.1c0,0-1,93.5,68.8,114.8"/>
	<line class="st2" x1="23.9" y1="138" x2="17" y2="168.7"/>
	<line class="st2" x1="35.7" y1="150.9" x2="30.8" y2="165.5"/>
	<path class="st9" d="M63.2,140.8c0,0,13.4,0.8,17.4-4.5"/>
	<ellipse class="st10" cx="147.2" cy="104.2" rx="7.7" ry="9.5"/>
	<ellipse class="st10" cx="179.6" cy="100.4" rx="7.7" ry="9.5"/>
	<path class="st11" d="M158.5,107.6c5.7-5.4,11.3-6.3,16.2-0.8c5.8,7.6,1.4,14.4-8.7,16.8"/>
	<path class="st12" d="M147.6,120.8c-1.7,10.4,0.3,17,8.7,21c2.6,1.2,5.5,1.9,8.3,1.7c8.5-0.7,13.2-7.9,15.2-18.4"/>
	<path class="st8" d="M77.8,211.2c0,0,22.7,49.4,23.1,117.4"/>
	<path class="st13" d="M33.9,276.1c-2.9-1.3-5.8-2.6-8.2-4.7s-4.3-4.9-4.4-8c-0.1-3.1,1.9-6.4,5-7.2c4.6-1.1,9.8,3.6,13.7,1
		c2.1-1.4,2.6-4.5,1.8-6.9c-0.8-2.4-2.6-4.4-4.4-6.2c-5.7-5.9-11.3-11.9-17-17.8"/>
	<path class="st13" d="M50.3,245.4c-6.8-7.5-12.7-15.8-17.4-24.7c-1.1-2.1-2.2-4.4-2.3-6.8c-0.1-2.4,1-5,3.2-6c2.3-1,4.9-0.1,7.1,1
		c5.1,2.5,9.7,5.8,13.7,9.8"/>
	<path class="st13" d="M42.3,228.3c1.8-2.6,3.7-5.2,5.5-7.9"/>
	<path class="st5" d="M66.6,115.1c0,0-32.9,7.9-10.8,40.7c0,0,14.1,21.2,36.6,7.5"/>
	<path class="st14" d="M76.3,195.3c0,0-47.4-30.4-63.8,12.8s-4.3,83.8,4.9,109.3"/>
	<path class="st14" d="M149.7,208c0,0-2.3-10.5,21.2-23.1c23.5-12.5,40.5-29.6,44.9-58.7c3.2-20.7,12.7-7.3,17.9,2.2
		c2.7,5,4.5,10.4,5.1,16c1.7,15.8,0.8,48.6-31.9,66.3c0,0,72.5,93.3,16,118.8"/>
</g>
</svg>
