<?xml version="1.0" encoding="utf-8"?>
<!-- Generator: Adobe Illustrator 25.4.1, SVG Export Plug-In . SVG Version: 6.00 Build 0)  -->
<svg version="1.1" id="Layer_1" xmlns="http://www.w3.org/2000/svg" xmlns:xlink="http://www.w3.org/1999/xlink" x="0px" y="0px"
	 viewBox="0 0 277.6 371.7" style="enable-background:new 0 0 277.6 371.7;" xml:space="preserve">
<style type="text/css">
	.st0{fill:#FFECEE;}
	.st1{fill:#FFBB00;}
	.st2{fill:#0073A6;}
	.st3{fill:none;stroke:#FFECEE;stroke-width:7;stroke-linecap:round;stroke-miterlimit:10;}
	.st4{fill:#005B99;}
	.st5{fill:none;stroke:#F3748D;stroke-width:7;stroke-linecap:round;stroke-miterlimit:10;}
	.st6{fill:none;stroke:#B91F48;stroke-width:7;stroke-linecap:round;stroke-miterlimit:10;}
	.st7{fill:none;stroke:#FA4F22;stroke-width:7;stroke-linecap:round;stroke-miterlimit:10;}
	.st8{fill:#F3748D;}
	.st9{fill:none;stroke:#57C9B9;stroke-width:6;stroke-linecap:round;stroke-miterlimit:10;}
	.st10{fill:#FFCB46;}
	.st11{fill:none;stroke:#EFD89C;stroke-width:6;stroke-linecap:round;stroke-miterlimit:10;}
	.st12{fill:none;stroke:#FFF5E3;stroke-width:7;stroke-linecap:round;stroke-miterlimit:10;}
	.st13{fill:none;stroke:#004BD8;stroke-width:7;stroke-linecap:round;stroke-miterlimit:10;}
	.st14{fill:none;stroke:#009076;stroke-width:7;stroke-linecap:round;stroke-linejoin:round;stroke-miterlimit:10;}
</style>
<g>
	<path class="st0" d="M215.5,154.6c4.1,42.5-24.8,80.1-64.6,84c-39.8,3.8-80.3-25-84.4-67.6S96.2,88.3,136,84.5
		S211.4,112,215.5,154.6z"/>
	<ellipse class="st0" cx="212.7" cy="141.6" rx="18.3" ry="25.9"/>
	<ellipse class="st0" cx="67.3" cy="175.5" rx="25.3" ry="26.8"/>
	<path class="st1" d="M62.3,139.5c0,0,4.7,29.7,7.8,35.1c3.1,5.4,6.2,6.2,7.4-0.8c1.2-7,7.8-23.3,14.4-32.6
		c6.6-9.3,14.4-18.6,14.4-18.6s5-7.8,7.4-2.3c2.3,5.4,4.3,13.6,7.8,12.8c3.5-0.8,8.9-4.3,5.8-17.1c-3.1-12.8-18.6-32.2-18.6-32.2
		l-41.9,36.8L62.3,139.5z"/>
	<path class="st1" d="M196.2,117.2c0,0,3.5,15.9,8.9,16.3c5.4,0.4,2.7-19.8,2.7-19.8L196.2,117.2z"/>
	<path class="st2" d="M31.7,366.6c0,0-13.6-118.7,111.3-118.7c112.1,0,115,58.8,132.9,119.7L31.7,366.6z"/>
	<path class="st3" d="M193.8,296.8c0,0,12.8,35.7,16.7,59.3"/>
	<ellipse transform="matrix(0.9503 -0.3113 0.3113 0.9503 -41.4598 52.2057)" class="st4" cx="142.8" cy="156" rx="7.2" ry="9.2"/>
	<ellipse transform="matrix(0.9503 -0.3113 0.3113 0.9503 -38.1622 57.1582)" class="st4" cx="160" cy="148.1" rx="7.2" ry="9.2"/>
	<path class="st5" d="M148.7,165.7c0,0,3.9-9.5,11.3-7.9c7.6,1.6,10.6,9.3,7,16.6c-4,8-11.9,3.2-11.9,3.2"/>
	<path class="st6" d="M127.1,154.9c0,0-0.5,25.4,11.8,34.2c9.2,6.5,23.9,3.9,29.4-2"/>
	<path class="st7" d="M64.8,178.1c0,0-8.7,7-15.9,6.3"/>
	<path class="st7" d="M221.3,141c0,0-1.9,2.4-8.9,3"/>
	<path class="st3" d="M120.1,251.2c0,0-104.3,16.9-84.2,116.9"/>
	<path class="st8" d="M13.9,142.8c0,0,12.4,116.4,45.8,145.1s58.6,7,63.6-1.2c5-8.1,8.5-30.3-5.4-29.9c-14,0.4-15.9,13.2-30.3,3.1
		c-14.4-10.1-36.8-55.5-34.5-98.5c2.3-43.1-1.2-26-1.2-26L13.9,142.8z"/>
	<ellipse cx="172" cy="56" rx="60.8" ry="43.3"/>
	<ellipse transform="matrix(0.2206 -0.9754 0.9754 0.2206 10.8888 216.458)" cx="140.9" cy="101.4" rx="20.1" ry="31.7"/>
	<ellipse transform="matrix(0.9879 -0.1549 0.1549 0.9879 -13.3555 32.5558)" cx="202.3" cy="102" rx="25.8" ry="18.1"/>
	<path d="M98.4,139.3c-35.8,33.5-60.6,29.1-84.6,3.5S-2.6,65,33.2,31.5s91.2-40.1,115.1-14.5c18.7,20,0.4,44.7-25.9,78.6
		C115,105,106.3,131.9,98.4,139.3z"/>
	<path class="st9" d="M167.7,98c0,0-51.6-3.1-56.1-37.8c-4.5-34.7,36.8-43.3,36.8-43.3"/>
	<path class="st8" d="M143.4,21L150,4c0,0,5-7.8,14.4-1.6c9.3,6.2,15.1,15.1,10.1,17.5c-5,2.3-22.1,7-22.1,7S142.6,29.9,143.4,21z"
		/>
	<path class="st8" d="M196.2,15.8l13.1-8.5c1-0.7,2.1-1.1,3.3-1.2c2.8-0.2,7.6,0.5,10.3,7.6c3.9,10.5,3.4,21.1-2.1,20.1
		c-5.4-1.1-22-7.3-22-7.3s-7.6-2.5-5.2-7.8C194.1,17.5,195.1,16.5,196.2,15.8z"/>
	<ellipse class="st10" cx="177.5" cy="54.3" rx="5.4" ry="6.1"/>
	<ellipse transform="matrix(0.1916 -0.9815 0.9815 0.1916 98.461 232.3767)" class="st10" cx="190.3" cy="56.4" rx="6.1" ry="5.4"/>
	<path class="st11" d="M145.2,55.7c0,0,17.6-2.3,31.6,8"/>
	<path class="st11" d="M147.9,71.3c0,0,10.3-8,30.3-5.8"/>
	<path class="st11" d="M218.1,64.9c0,0-16.5-4.5-31.2,0.4"/>
	<path class="st11" d="M213,74.6c0,0-12.4-8.1-27.9-6.8"/>
	<circle class="st8" cx="182.4" cy="65.2" r="6.4"/>
	<line class="st9" x1="152.3" y1="110.6" x2="160.1" y2="117"/>
	<line class="st9" x1="157.8" y1="102.9" x2="167.7" y2="112.6"/>
	<path class="st9" d="M178.1,99.8c0,0,31.6,3.3,42.9-10.7"/>
	<path class="st9" d="M19.9,111.8c0,0-1-39.8,29.9-48.5s35.5,32.6,28.9,53.1"/>
	<path class="st9" d="M112.4,109.3c0,0-5.2-29.3-30.3-5"/>
	<path class="st12" d="M170.9,308.3c-2-3.6-5.4-6.6-9.4-7.7c-4-1-8.7,0.1-11.4,3.3c-2.7,3.2-3,8.3-0.2,11.5c2,2.2,5,3.2,7.7,4.4
		c4.2,1.9,8.2,5,9.9,9.4c1.7,4.3,0.7,9.9-3.2,12.5c-3.7,2.5-8.9,1.6-12.5-1c-3.7-2.5-6.1-6.4-8.5-10.2"/>
	<path class="st13" d="M186.1,248.7c0,0,84.9,24.4,88.1,115.8"/>
	<path class="st14" d="M217.1,109.9c0,0,40.1,30.3-1.7,62.3c0,0-3.5,34.3-29.1,52.4l-0.2,24.2c0,0-54.7-2.3-66.9,2.9"/>
</g>
</svg>
