<?xml version="1.0" encoding="utf-8"?>
<!-- Generator: Adobe Illustrator 25.4.1, SVG Export Plug-In . SVG Version: 6.00 Build 0)  -->
<svg version="1.1" id="Layer_1" xmlns="http://www.w3.org/2000/svg" xmlns:xlink="http://www.w3.org/1999/xlink" x="0px" y="0px"
	 viewBox="0 0 270.6 378.4" style="enable-background:new 0 0 270.6 378.4;" xml:space="preserve">
<style type="text/css">
	.st0{fill:#FFECEE;}
	.st1{fill:#FB729E;}
	.st2{fill:none;stroke:#007FB5;stroke-width:7;stroke-linecap:round;stroke-linejoin:round;stroke-miterlimit:10;}
	.st3{fill:#000001;}
	.st4{fill:none;stroke:#C01448;stroke-width:6;stroke-linecap:round;stroke-miterlimit:10;}
	.st5{clip-path:url(#SVGID_00000142173183522974616070000007472453169625360299_);fill:#FFCB46;}
	.st6{fill:none;stroke:#000000;stroke-width:7;stroke-linecap:round;stroke-miterlimit:10;}
	.st7{fill:none;stroke:#309847;stroke-width:7;stroke-linecap:round;stroke-miterlimit:10;}
	.st8{fill:none;stroke:#231784;stroke-width:7;stroke-linecap:round;stroke-miterlimit:10;}
	.st9{fill:none;stroke:#EE842D;stroke-width:7;stroke-linecap:round;stroke-miterlimit:10;}
</style>
<g>
	<path class="st0" d="M222.8,127.9c0,43.2-37.9,78.8-84.7,78.2c-45.6-0.6-84.7-35-84.7-78.2s37.9-78.2,84.7-78.2
		S222.8,84.8,222.8,127.9z"/>
	
		<ellipse transform="matrix(0.9865 -0.1639 0.1639 0.9865 -21.8168 7.7286)" class="st0" cx="35.9" cy="136.1" rx="32.7" ry="36.7"/>
	
		<ellipse transform="matrix(0.3405 -0.9402 0.9402 0.3405 31.4623 310.9808)" class="st0" cx="237.4" cy="133.1" rx="36.7" ry="32.7"/>
	<rect x="104.2" y="192.3" class="st0" width="78.1" height="33"/>
	<path class="st1" d="M92.1,78.2c0,0-23.8,14.5-27.8,25c-3.3,8.5-1.8,13.1-1.8,13.1s-12.7-8.5-16.3-15.7c-3.6-7.3-4.8-19.4-1.8-31.5
		l-2.4-7.3c0,0-3-2.4,1.8-7.3s18.2-18.8,22.4-23c4.2-4.2,11.5-10.3,16.9-12.1c0,0-4.8-7.3,3.6-8.5S119.9,5,129,1.4s39.3,0,52.6,10.9
		C195,23.1,202.8,31.6,208.9,34c6.1,2.4,20.6,17.5,21.2,36.3c0.6,18.8-9.2,43.6-9.2,43.6s-2.9-16.3-8.3-22.4
		c-5.4-6.1-19.4-17.5-24.2-19.4c-4.8-1.8-11.5-12.7-11.5-15.1s-13.9,4.2-13.9,4.2l-12.1-6.1l-16.9,13.3l-18.8-8.5l-7.3,9.7H89.7
		L92.1,78.2z"/>
	<path class="st2" d="M90.6,78.5l-2.4-11.8c0,0,19.8,7.3,22.7,0c5.1-13,20,2.1,20,2.1l20-13.6l12.1,6.1l13.9-4.2
		c0,0,4.2,14.2,18.8,20.9"/>
	<ellipse class="st3" cx="129.2" cy="119.2" rx="7" ry="8"/>
	<ellipse class="st3" cx="148.9" cy="119.2" rx="7" ry="8"/>
	<path class="st4" d="M118.1,96.7c0,0-20,42.1,19.7,49c0,0,31.2,6.1,31.2-36.9"/>
	<g>
		<defs>
			<path id="SVGID_1_" d="M262.4,291.9c0,22.1,3.5,55-18.7,70.9c-23,16.5-72.2,15.6-106.7,15.6c-27.2,0-74.6-2.5-94.4-13.5
				c-29.6-16.4-25.8-46.6-25.8-73.6c0-45.1,53.1-65.1,120.5-71.8C213.3,211.9,262.4,246.8,262.4,291.9z"/>
		</defs>
		<use xlink:href="#SVGID_1_"  style="overflow:visible;fill:#007FB5;"/>
		<clipPath id="SVGID_00000066489325575085439360000014167543049714339491_">
			<use xlink:href="#SVGID_1_"  style="overflow:visible;"/>
		</clipPath>
		
			<rect x="8" y="250.1" style="clip-path:url(#SVGID_00000066489325575085439360000014167543049714339491_);fill:#FFCB46;" width="251.3" height="11"/>
		
			<rect x="8" y="276.3" style="clip-path:url(#SVGID_00000066489325575085439360000014167543049714339491_);fill:#FFCB46;" width="251.3" height="11"/>
		
			<rect x="8" y="302.5" style="clip-path:url(#SVGID_00000066489325575085439360000014167543049714339491_);fill:#FFCB46;" width="251.3" height="11"/>
	</g>
	<g>
		<path class="st6" d="M135,265.9c-2.8-5.3-9.3-8.3-15.2-7.2s-10.7,6.4-11.3,12.4s3,12.1,8.5,14.4c4.6,2,9.9,1.3,15,1.2
			c5-0.1,10.7,0.7,13.9,4.7c3.5,4.3,2.6,11.2-1,15.5s-9.1,6.5-14.6,7.7c-18.3,4-38.6-2.7-51.1-16.7"/>
		<path class="st6" d="M148.6,275.3c3.5,8.2,7,16.4,10.4,24.6"/>
		<path class="st6" d="M170.2,262.2c5,9.4,9.9,18.8,14.9,28.3"/>
		<path class="st6" d="M155.7,286.4c5.8-3.3,11.7-6.6,17.5-9.8"/>
	</g>
	<line class="st7" x1="103" y1="199.2" x2="103.7" y2="220"/>
	<path class="st8" d="M169.7,220.4c0,0-195.6-24.3-142.8,128.6"/>
	<path class="st9" d="M174.4,220.1c0,0,115.8,4.7,82.2,127.7"/>
	<path class="st7" d="M27.7,102.4c0,0-34.8,7-20.9,47.2c0,0,16.3,39.9,53.2,12.1c0,0,7.3,22.4,43,37.5c0,0,73.8,26,111.3-35.1"/>
	<line class="st8" x1="227" y1="137.5" x2="248.8" y2="132"/>
	<line class="st8" x1="26.8" y1="139.9" x2="48.5" y2="134.5"/>
</g>
</svg>
