<?xml version="1.0" encoding="utf-8"?>
<!-- Generator: Adobe Illustrator 25.4.1, SVG Export Plug-In . SVG Version: 6.00 Build 0)  -->
<svg version="1.1" id="Layer_1" xmlns="http://www.w3.org/2000/svg" xmlns:xlink="http://www.w3.org/1999/xlink" x="0px" y="0px"
	 viewBox="0 0 147.1 147.1" style="enable-background:new 0 0 147.1 147.1;" xml:space="preserve">
<style type="text/css">
	.st0{fill:#75A7B5;}
</style>
<path class="st0" d="M140,52.8v58.6c0,8.4-6.8,15.1-15.1,15.1h-15.5V61.7c0-1.5-1.2-2.8-2.8-2.8c-1.5,0-2.8,1.2-2.8,2.8v64.9H50.4
	c-1.5-2.8-2.8-5.8-3.9-9.1c-4.8-14-5.9-31.8-3.7-56.1c0.1-1.5-1-2.9-2.5-3c-1.5-0.1-2.9,1-3,2.5c-2.3,25-1,43.6,4,58.4
	c0.9,2.5,1.8,5,2.9,7.3h-22c-8.4,0-15.1-6.8-15.1-15.1V52.8c0-8.9,3.6-17,9.5-22.8c5.8-5.8,13.9-9.5,22.8-9.5
	c17.8,0,32.3,14.5,32.3,32.3v46.5c0,0.8,0.7,1.5,1.5,1.5h0.8c0.8,0,1.5-0.7,1.5-1.5V52.8c0-17.8,14.5-32.3,32.3-32.3
	C125.5,20.5,140,35,140,52.8z"/>
</svg>
