<?xml version="1.0" standalone="no"?>
<!DOCTYPE svg PUBLIC "-//W3C//DTD SVG 20010904//EN"
 "http://www.w3.org/TR/2001/REC-SVG-20010904/DTD/svg10.dtd">
<svg version="1.0" xmlns="http://www.w3.org/2000/svg"
 width="700.000000pt" height="700.000000pt" viewBox="0 0 700.000000 700.000000"
 preserveAspectRatio="xMidYMid meet">
<metadata>
Created by potrace 1.14, written by Peter Selinger 2001-2017
</metadata>
<g transform="translate(0.000000,700.000000) scale(0.100000,-0.100000)"
fill="#000000" stroke="none">
<path d="M1698 6013 c-355 -44 -666 -199 -923 -459 -248 -251 -396 -568 -431
-924 -7 -73 -7 -3008 1 -3040 3 -14 7 -37 10 -53 37 -200 195 -396 399 -493
136 -65 157 -67 784 -68 309 -1 562 0 562 2 0 2 -18 45 -40 97 -22 52 -40 97
-40 100 0 4 -6 21 -14 38 -20 43 -91 264 -115 358 -25 93 -63 267 -76 344 -3
17 -7 44 -10 60 -6 33 -13 82 -20 133 -3 17 -7 47 -10 65 -6 41 -13 104 -20
192 -3 39 -8 88 -11 110 -24 209 -23 936 1 1240 2 22 6 83 9 135 18 275 25
308 72 344 65 47 163 24 194 -47 17 -38 18 -63 6 -197 -3 -30 -8 -100 -12
-155 -3 -55 -8 -116 -9 -135 -8 -83 -19 -461 -18 -645 1 -232 13 -508 28 -640
3 -27 8 -72 11 -100 2 -27 12 -97 20 -155 9 -58 18 -118 20 -135 2 -16 6 -37
9 -45 2 -8 7 -33 11 -54 12 -80 74 -316 117 -446 53 -160 168 -431 194 -460 3
-3 576 -5 1274 -5 l1269 0 0 1554 c0 1137 3 1563 11 1586 36 99 200 103 242 6
8 -19 11 -464 12 -1581 l1 -1555 414 -2 c380 -1 421 0 490 18 41 11 89 26 107
34 17 8 34 15 38 15 3 0 37 20 74 44 178 115 293 294 327 509 8 57 8 2921 0
3022 -58 659 -554 1223 -1201 1364 -49 11 -63 13 -155 26 -81 12 -293 7 -399
-9 -450 -69 -850 -336 -1084 -723 -68 -112 -155 -313 -171 -394 -2 -13 -11
-53 -19 -89 -9 -36 -19 -83 -22 -105 -4 -22 -9 -582 -10 -1244 l-3 -1203 -21
-21 c-28 -28 -110 -30 -137 -2 -18 18 -19 59 -21 1134 -1 1045 -4 1274 -19
1361 -63 379 -251 711 -534 944 -76 62 -193 146 -204 146 -4 0 -24 11 -45 25
-93 58 -324 142 -446 161 -22 3 -42 7 -45 9 -7 5 -174 17 -254 19 -36 1 -111
-4 -168 -11z"/>
</g>
</svg>
